<?xml version="1.0" standalone="no"?>
<!DOCTYPE svg PUBLIC "-//W3C//DTD SVG 20010904//EN"
 "http://www.w3.org/TR/2001/REC-SVG-20010904/DTD/svg10.dtd">
<svg version="1.0" xmlns="http://www.w3.org/2000/svg"
 width="300.000000pt" height="197.000000pt" viewBox="0 0 300.000000 197.000000"
 preserveAspectRatio="xMidYMid meet">
<metadata>
Created by potrace 1.10, written by Peter Selinger 2001-2011
</metadata>
<g transform="translate(0.000000,197.000000) scale(0.100000,-0.100000)"
fill="#000000" stroke="none">
<path d="M1345 1593 c-55 -12 -90 -28 -119 -53 -21 -19 -51 -32 -90 -39 -121
-22 -215 -105 -231 -203 -6 -31 -17 -52 -44 -76 l-36 -33 45 7 c120 17 163 62
159 167 -2 49 0 63 13 65 11 2 17 -9 22 -48 17 -126 -49 -197 -199 -215 -58
-7 -75 -17 -75 -42 0 -8 14 -6 43 7 53 25 74 25 137 0 63 -25 103 -25 156 -1
63 29 87 65 81 126 -3 27 -8 62 -12 78 -10 38 10 35 31 -5 37 -71 11 -175 -51
-208 -31 -16 -22 -27 25 -32 23 -2 35 -8 35 -18 0 -18 -63 -17 -98 2 -12 7
-43 11 -69 9 -30 -2 -70 5 -108 18 -67 24 -112 19 -159 -17 -23 -19 -23 -19
-8 -73 27 -91 98 -141 221 -155 l51 -5 115 87 c129 98 192 130 277 145 75 12
121 4 177 -31 48 -31 103 -118 92 -147 -8 -21 -24 -7 -42 35 -22 55 -62 91
-118 107 -68 21 -71 19 -41 -16 17 -21 25 -41 23 -58 -3 -27 -33 -37 -33 -11
-1 32 -18 61 -45 75 -27 14 -34 13 -82 -5 -29 -11 -101 -56 -160 -99 l-107
-79 40 -6 c21 -3 51 -4 64 -1 14 3 36 7 50 10 13 3 41 19 60 37 27 23 39 28
47 20 15 -15 -14 -47 -67 -75 -42 -22 -142 -29 -200 -14 -30 7 -30 7 12 -31
50 -46 98 -62 190 -62 49 0 80 6 108 20 22 11 40 20 41 20 1 0 5 -12 8 -26 10
-40 92 -121 141 -140 107 -41 247 5 292 95 13 26 19 49 14 55 -18 24 -21 67
-6 108 23 67 19 98 -17 135 -27 28 -29 33 -14 39 24 9 64 -31 76 -77 8 -29 7
-46 -6 -77 -8 -22 -14 -55 -12 -74 3 -30 6 -33 33 -30 64 7 121 65 125 127 4
54 0 65 -35 104 -19 21 -35 48 -35 60 0 36 -31 101 -59 120 -15 11 -43 22 -64
26 -42 8 -52 35 -13 35 80 0 152 -72 170 -171 6 -36 47 -85 59 -72 4 3 7 47 7
97 0 107 -25 174 -81 219 -46 37 -45 36 -79 84 -16 23 -39 47 -51 54 -20 10
-21 9 -15 -15 8 -33 -15 -88 -45 -110 -37 -25 -48 -2 -16 32 21 21 27 38 27
70 0 49 -18 65 -95 82 -27 6 -73 22 -101 36 -41 20 -65 25 -120 24 -38 -1 -93
3 -123 9 -29 6 -56 10 -60 10 -3 -1 -15 -3 -26 -6z m48 -74 c22 -46 9 -87 -39
-124 -40 -31 -43 -53 -14 -120 33 -78 24 -122 -31 -151 -24 -12 -34 -13 -43
-4 -8 9 -8 14 2 17 7 3 25 16 40 28 l27 23 -25 73 c-13 39 -23 81 -23 92 1 11
20 39 42 61 44 44 53 84 26 106 -21 17 -19 42 3 38 9 -2 25 -19 35 -39z m236
-12 c46 -4 59 -10 82 -35 32 -36 56 -109 41 -124 -15 -15 -32 0 -32 27 0 38
-21 75 -51 91 -40 20 -63 19 -53 -3 26 -60 12 -130 -36 -181 -38 -40 -46 -10
-11 38 44 61 42 102 -7 149 -20 20 -46 41 -56 47 -12 6 -16 15 -12 22 6 9 17
8 44 -7 20 -11 61 -22 91 -24z m-126 -34 c31 -35 57 -69 57 -75 0 -7 -11 -35
-26 -61 -27 -52 -25 -80 7 -97 32 -18 79 20 116 94 l20 40 17 -26 c21 -33 42
-41 67 -27 15 8 25 6 46 -10 37 -30 51 -26 95 20 l39 41 55 -54 c58 -55 84
-94 84 -125 0 -12 -11 -6 -39 24 -75 77 -173 93 -195 31 -12 -35 9 -60 64 -77
46 -13 68 -42 82 -103 5 -24 22 -60 39 -80 40 -51 36 -109 -10 -145 -28 -22
-31 -14 -25 55 7 77 -6 115 -52 151 -36 28 -70 27 -90 -4 -16 -24 -15 -27 11
-65 22 -32 26 -45 20 -72 -4 -18 -8 -71 -9 -117 -1 -82 -2 -84 -36 -112 -92
-78 -240 -56 -309 44 -16 23 -38 50 -49 61 -20 17 -23 17 -71 1 -27 -9 -67
-15 -88 -13 l-38 3 35 19 c47 25 69 45 87 79 13 25 13 31 -2 53 -20 31 -48 30
-91 -2 -19 -15 -37 -24 -41 -21 -9 9 34 42 94 73 61 31 99 27 109 -10 8 -32
38 -59 61 -54 10 2 27 18 38 35 11 18 25 31 30 29 6 -1 23 -23 40 -48 43 -66
61 -75 91 -47 13 12 24 31 24 41 0 57 -66 145 -133 176 -64 29 -118 34 -200
17 -39 -8 -73 -15 -75 -15 -2 0 5 12 16 28 31 44 34 75 11 147 l-20 66 35 39
c40 44 50 74 44 125 -2 20 -1 34 2 33 3 -2 32 -31 63 -65z m-182 30 c8 -22 6
-30 -14 -52 -14 -14 -32 -38 -41 -53 -16 -24 -20 -26 -43 -15 -22 10 -28 8
-49 -16 -19 -23 -21 -32 -13 -59 17 -61 11 -94 -22 -122 -17 -14 -34 -26 -37
-27 -4 0 -16 -2 -27 -5 -11 -2 -31 -2 -43 1 -23 6 -23 7 16 50 47 50 57 88 49
180 l-5 64 29 5 c16 4 41 8 57 11 15 3 43 19 62 35 44 37 68 38 81 3z m497
-45 c16 -16 15 -40 -2 -64 -14 -18 -15 -18 -24 6 -24 63 -24 70 -5 70 11 0 24
-5 31 -12z m-838 -168 c-6 -11 -18 -20 -26 -20 -17 0 -13 24 15 75 l16 30 3
-32 c2 -18 -2 -41 -8 -53z m-10 -235 c23 -8 63 -15 89 -15 52 0 136 -23 135
-36 0 -5 -29 -30 -63 -56 -56 -43 -67 -48 -114 -48 -88 1 -167 51 -183 117
-13 51 49 69 136 38z"/>
</g>
</svg>
