<?xml version="1.0" encoding="utf-8"?>
<!-- Generator: Adobe Illustrator 23.0.6, SVG Export Plug-In . SVG Version: 6.00 Build 0)  -->
<svg version="1.1" id="Layer_1" xmlns="http://www.w3.org/2000/svg" xmlns:xlink="http://www.w3.org/1999/xlink" x="0px" y="0px"
	 viewBox="0 0 78 99" style="enable-background:new 0 0 78 99;" xml:space="preserve">
<style type="text/css">
	.st0{filter:url(#Adobe_OpacityMaskFilter);}
	.st1{fill-rule:evenodd;clip-rule:evenodd;fill:#FFFFFF;}
	.st2{mask:url(#mask-2_1_);}
	.st3{fill-rule:evenodd;clip-rule:evenodd;fill:#D0452E;}
	.st4{filter:url(#Adobe_OpacityMaskFilter_1_);}
	.st5{mask:url(#mask-4_1_);fill-rule:evenodd;clip-rule:evenodd;fill:#73797C;}
	.st6{filter:url(#Adobe_OpacityMaskFilter_2_);}
	.st7{mask:url(#mask-6_1_);fill-rule:evenodd;clip-rule:evenodd;fill:#FFFFFF;}
</style>
<title>Group 3 Copy 4</title>
<desc>Created with Sketch.</desc>
<g id="Page-1">
	<g id="Group-3-Copy-4" transform="translate(0.000000, -1.000000)">
		<g id="Mask">
		</g>
		<defs>
			<filter id="Adobe_OpacityMaskFilter" filterUnits="userSpaceOnUse" x="0" y="1" width="77.4" height="97.1">
				<feColorMatrix  type="matrix" values="1 0 0 0 0  0 1 0 0 0  0 0 1 0 0  0 0 0 1 0"/>
			</filter>
		</defs>
		<mask maskUnits="userSpaceOnUse" x="0" y="1" width="77.4" height="97.1" id="mask-2_1_">
			<g class="st0">
				<rect id="path-1_1_" class="st1" width="78" height="83"/>
			</g>
		</mask>
		<g class="st2">
			<g>
				<g id="Group-32" transform="translate(0.000000, 0.211148)">
					<path id="Fill-1" class="st3" d="M0.1,76.1V65.4c0,0,5.3-2.8,15.7-5.1C12.8,63.3,0.1,76.1,0.1,76.1"/>
					<path id="Fill-3" class="st3" d="M0.7,76.6l16-16c0,0-2.2,9.8-5,16H0.7z"/>
					<path id="Fill-5" class="st3" d="M12.6,76.6c0,0,3.8-8.3,5.1-17.1c3.6-3.6,7.9-7.9,7.9-7.9s0.6,12.7-4.4,25H12.6z"/>
					<path id="Fill-7" class="st3" d="M22.1,76.6c0,0,4.5-8.5,4.3-25.8c4-4.1,9-9.2,9-9.2s4.2,18.9-2.7,34.7
						C27.7,76.6,22.1,76.6,22.1,76.6"/>
					<path id="Fill-9" class="st3" d="M33.7,76.4c0,0,6.6-13.7,2.4-35.4c1.8-1.8,3.5-3.5,3.5-3.5h5.7c0,0,5.3,22.2-2.7,38.6
						C39,76.7,33.7,76.4,33.7,76.4"/>
					<path id="Fill-11" class="st3" d="M43.5,76.1c0,0,7.6-13.9,2.6-38.6h9.7c0,0,4.4,17.9-1.3,35.7C51.5,74.8,45.8,75.7,43.5,76.1"
						/>
					<path id="Fill-13" class="st3" d="M55.6,72.7c0,0,5.4-12.5,1-35.3h11.3c0,0,1.9,16.5-2.5,27.8C61.4,70.1,55.6,72.7,55.6,72.7"
						/>
					<path id="Fill-15" class="st3" d="M66.9,63.6c0,0,3.4-9.5,1.8-26.1h6.9C75.6,37.5,75.9,52.1,66.9,63.6"/>
					<path id="Fill-17" class="st3" d="M0.1,64.4v-8.5c0,0,9.7-4.9,24.6-4.7c-2.9,2.9-7.8,7.9-7.8,7.9S6.4,61.4,0.1,64.4"/>
					<path id="Fill-19" class="st3" d="M0.1,54.9V44.3c0,0,11.5-6.4,34.4-3c-4.6,4.6-8.9,9.1-8.9,9.1S10,50.1,0.1,54.9"/>
					<path id="Fill-21" class="st3" d="M0.1,43.3c0,0-0.3-4.8,0.2-8.9c2.8-1.3,16.2-7.3,38.8-2.9v5.3l-3.8,3.8
						C35.3,40.6,16,36.5,0.1,43.3"/>
					<path id="Fill-23" class="st3" d="M0.3,33.5c0,0,1.4-7,3.1-11c2.8-1.5,17.2-5,35.7-1.5v9.6C39.1,30.6,18,25.6,0.3,33.5"/>
					<path id="Fill-25" class="st3" d="M3.8,21.3c0,0,2.9-5.9,6.2-9.6c3.1-1.2,13.2-4.3,29.1-2.8V20C39.1,20,21.1,16,3.8,21.3"/>
					<path id="Fill-27" class="st3" d="M11.3,10.4c0,0,8.3-9.9,27.8-9.6v7.3C39.1,8.1,25.2,6.2,11.3,10.4"/>
					<g id="Group-31" transform="translate(0.000000, 86.989812)">
						<g id="Clip-30">
						</g>
						<defs>
							<filter id="Adobe_OpacityMaskFilter_1_" filterUnits="userSpaceOnUse" x="0.1" y="0.4" width="77.2" height="10.5">
								<feColorMatrix  type="matrix" values="1 0 0 0 0  0 1 0 0 0  0 0 1 0 0  0 0 0 1 0"/>
							</filter>
						</defs>
						<mask maskUnits="userSpaceOnUse" x="0.1" y="0.4" width="77.2" height="10.5" id="mask-4_1_">
							<g class="st4">
								<polygon id="path-3_1_" class="st1" points="0.1,0.4 77.4,0.4 77.4,10.9 0.1,10.9 								"/>
							</g>
						</mask>
						<path id="Fill-29" class="st5" d="M73.3,10.9c-0.6,0-1.2-0.1-1.7-0.2c-0.5-0.1-1-0.4-1.4-0.6c-0.4-0.3-0.7-0.7-0.9-1.1
							c-0.2-0.5-0.3-1-0.3-1.6l0-0.2h1.3l0,0.2c0,0.5,0.1,0.9,0.2,1.2C70.8,8.8,71,9,71.3,9.2c0.3,0.2,0.6,0.3,1,0.4
							c0.4,0.1,0.8,0.1,1.3,0.1c0.3,0,0.5,0,0.8-0.1c0.3-0.1,0.6-0.2,0.8-0.3c0.3-0.1,0.5-0.3,0.6-0.6c0.2-0.2,0.2-0.5,0.2-0.8
							c0-0.2-0.1-0.4-0.2-0.6c-0.1-0.2-0.3-0.3-0.5-0.5c-0.2-0.1-0.4-0.2-0.6-0.3c-0.2-0.1-0.5-0.2-0.7-0.2l-2.3-0.5
							c-0.3-0.1-0.6-0.2-0.9-0.3c-0.3-0.1-0.6-0.3-0.8-0.5c-0.2-0.2-0.4-0.4-0.5-0.7c-0.1-0.3-0.2-0.6-0.2-1c0-0.3,0.1-0.6,0.1-0.9
							c0.1-0.3,0.3-0.7,0.6-1c0.3-0.3,0.7-0.6,1.1-0.8c0.5-0.2,1.1-0.3,1.8-0.3c0.5,0,1,0.1,1.5,0.2c0.5,0.1,0.9,0.3,1.3,0.6
							c0.4,0.3,0.7,0.6,0.9,1C76.9,2.6,77,3,77,3.6v0.2h-1.3l0-0.2c0-0.3-0.1-0.7-0.2-0.9c-0.1-0.3-0.3-0.5-0.6-0.6
							c-0.2-0.2-0.5-0.3-0.8-0.4c-0.3-0.1-0.6-0.1-1-0.1c-0.3,0-0.6,0-0.9,0.1c-0.3,0.1-0.5,0.2-0.8,0.3C71.2,2,71,2.2,70.9,2.4
							c-0.1,0.2-0.2,0.5-0.2,0.8c0,0.2,0,0.4,0.1,0.5c0.1,0.1,0.2,0.3,0.3,0.4c0.1,0.1,0.3,0.2,0.4,0.3c0.2,0.1,0.4,0.1,0.6,0.2
							l2.5,0.6c0.4,0.1,0.7,0.2,1,0.3C76,5.7,76.3,5.8,76.5,6c0.3,0.2,0.5,0.5,0.6,0.8c0.1,0.3,0.2,0.7,0.2,1.1c0,0.1,0,0.3,0,0.5
							c0,0.2-0.1,0.4-0.2,0.6c-0.1,0.2-0.2,0.4-0.4,0.7c-0.2,0.2-0.4,0.4-0.7,0.6c-0.3,0.2-0.7,0.3-1.1,0.4
							C74.4,10.8,73.9,10.9,73.3,10.9L73.3,10.9z M47.6,10.9c-0.8,0-1.5-0.1-2.2-0.4c-0.6-0.3-1.1-0.7-1.6-1.2
							c-0.4-0.5-0.7-1-0.9-1.7s-0.3-1.3-0.3-2c0-0.7,0.1-1.4,0.3-2C43.2,3,43.5,2.4,43.9,2c0.4-0.5,0.9-0.9,1.6-1.2
							c0.6-0.3,1.4-0.4,2.2-0.4c0.8,0,1.5,0.1,2.2,0.4c0.6,0.3,1.1,0.7,1.6,1.2c0.4,0.5,0.7,1.1,0.9,1.7c0.2,0.6,0.3,1.3,0.3,2
							c0,0.7-0.1,1.4-0.3,2c-0.2,0.6-0.5,1.2-0.9,1.7c-0.4,0.5-0.9,0.9-1.6,1.2C49.2,10.7,48.4,10.9,47.6,10.9L47.6,10.9z M47.6,1.5
							c-0.6,0-1.2,0.1-1.7,0.4c-0.5,0.2-0.8,0.5-1.1,0.9c-0.3,0.4-0.5,0.8-0.7,1.3C44,4.6,44,5.1,44,5.6c0,0.5,0.1,1,0.2,1.5
							c0.1,0.5,0.4,0.9,0.7,1.3c0.3,0.4,0.7,0.7,1.1,0.9c0.5,0.2,1,0.4,1.7,0.4c0.6,0,1.2-0.1,1.7-0.4c0.5-0.2,0.8-0.5,1.1-0.9
							c0.3-0.4,0.5-0.8,0.7-1.3c0.1-0.5,0.2-1,0.2-1.5c0-0.5-0.1-1-0.2-1.5c-0.1-0.5-0.4-0.9-0.7-1.3c-0.3-0.4-0.7-0.7-1.1-0.9
							C48.8,1.6,48.3,1.5,47.6,1.5L47.6,1.5z M64.1,10.7v-9h-6.6v9h-1.3v-9h-3.5V0.6H69v1.1h-3.5v9H64.1z M40.1,10.7h1.3V0.6h-1.3
							V10.7z M37.6,10.7L37.6,10.7c-0.1-0.2-0.2-0.3-0.2-0.5c0-0.1-0.1-0.3-0.1-0.4c0-0.1,0-0.3,0-0.4c0-0.1,0-0.3,0-0.4
							c0-0.4-0.1-0.7-0.1-1c0-0.3-0.1-0.6-0.3-0.9c-0.1-0.2-0.3-0.4-0.5-0.6c-0.2-0.1-0.5-0.2-0.9-0.2c0,0-0.1,0-0.1,0h-3.5v4.3
							h-1.3V0.6h4.8c0.4,0,0.8,0.1,1.2,0.2c0.4,0.1,0.7,0.3,1,0.5c0.3,0.2,0.5,0.5,0.7,0.9c0.2,0.3,0.3,0.8,0.3,1.2
							c0,0.7-0.2,1.2-0.5,1.7c-0.3,0.3-0.6,0.6-1,0.8c0.1,0,0.2,0.1,0.3,0.1C37.6,6,37.8,6.2,38,6.4c0.1,0.2,0.3,0.5,0.3,0.7
							c0.1,0.3,0.1,0.5,0.1,0.8c0,0.2,0,0.4,0,0.6c0,0.2,0,0.5,0.1,0.7c0,0.2,0.1,0.5,0.1,0.7c0.1,0.2,0.1,0.3,0.2,0.4l0.3,0.3H37.6
							z M35.3,5.2c0.3,0,0.5,0,0.8-0.1c0.2-0.1,0.5-0.2,0.6-0.3c0.2-0.1,0.3-0.3,0.4-0.5c0.1-0.2,0.2-0.5,0.2-0.7
							c0-0.6-0.2-1-0.5-1.3c-0.3-0.3-0.8-0.5-1.5-0.5h-3.4v3.5H35.3z M28,10.7L28,10.7c-0.1-0.2-0.2-0.3-0.2-0.5
							c0-0.1-0.1-0.3-0.1-0.4c0-0.1,0-0.3,0-0.4c0-0.1,0-0.3,0-0.4c0-0.4-0.1-0.7-0.1-1c0-0.3-0.1-0.6-0.3-0.9
							c-0.1-0.2-0.3-0.4-0.5-0.6c-0.2-0.1-0.5-0.2-0.9-0.2c0,0-0.1,0-0.1,0h-3.5v4.3H21V0.6h4.8c0.4,0,0.8,0.1,1.2,0.2
							c0.4,0.1,0.7,0.3,1,0.5c0.3,0.2,0.5,0.5,0.7,0.9c0.2,0.4,0.3,0.8,0.3,1.2c0,0.7-0.2,1.2-0.5,1.7c-0.3,0.3-0.6,0.6-1,0.8
							c0.1,0,0.2,0.1,0.3,0.1c0.2,0.1,0.4,0.3,0.6,0.5c0.1,0.2,0.3,0.4,0.3,0.7c0.1,0.3,0.1,0.5,0.1,0.8c0,0.2,0,0.4,0,0.6
							c0,0.2,0,0.5,0.1,0.7c0,0.2,0.1,0.5,0.1,0.7c0.1,0.2,0.1,0.3,0.2,0.4l0.2,0.3H28z M25.8,5.2c0.3,0,0.5,0,0.8-0.1
							C26.8,5,27,4.9,27.2,4.7c0.2-0.1,0.3-0.3,0.4-0.5c0.1-0.2,0.2-0.5,0.2-0.7c0-0.6-0.2-1-0.5-1.3c-0.3-0.3-0.8-0.5-1.5-0.5h-3.4
							v3.5H25.8z M19.1,10.7l-1.2-3h-4.4l-1.2,3h-1.4l4.2-10.1h1.3l4.1,10.1H19.1z M17.4,6.5l-1.7-4.4l-1.8,4.4H17.4z M9.1,10.7V2.8
							l-3.2,7.8H4.7L1.5,2.8v7.8H0.1V0.6h1.7l3.4,8.3l3.4-8.3h1.7v10.1H9.1z"/>
					</g>
				</g>
				<polygon id="Fill-33" class="st1" points="47,29.8 47,7 51,7 58.3,26.1 65.6,7 69.5,7 69.5,29.8 66.7,29.8 66.7,10.6 59.6,29.8 
					57,29.8 49.8,10.6 49.8,29.8 				"/>
			</g>
		</g>
		<g transform="translate(0.000000, 88.000000)">
			<g transform="translate(0.000000, 0.129776)">
				<g transform="translate(0.000000, 0.206836)">
					<defs>
						<filter id="Adobe_OpacityMaskFilter_2_" filterUnits="userSpaceOnUse" x="0.1" y="0.7" width="77.8" height="10.3">
							<feColorMatrix  type="matrix" values="1 0 0 0 0  0 1 0 0 0  0 0 1 0 0  0 0 0 1 0"/>
						</filter>
					</defs>
					<mask maskUnits="userSpaceOnUse" x="0.1" y="0.7" width="77.8" height="10.3" id="mask-6_1_">
						<g class="st6">
							<polygon id="path-5_1_" class="st1" points="0.1,0.7 77.9,0.7 77.9,11 0.1,11 							"/>
						</g>
					</mask>
					<path class="st7" d="M73.9,11c-0.6,0-1.2-0.1-1.7-0.2c-0.5-0.1-1-0.3-1.4-0.6c-0.4-0.3-0.7-0.7-0.9-1.1c-0.2-0.4-0.3-1-0.3-1.6
						l0-0.2h1.3l0,0.2c0,0.5,0.1,0.9,0.2,1.2c0.2,0.3,0.4,0.5,0.7,0.7c0.3,0.2,0.6,0.3,1,0.4c0.4,0.1,0.8,0.1,1.3,0.1
						c0.3,0,0.5,0,0.8-0.1c0.3-0.1,0.6-0.2,0.8-0.3c0.3-0.1,0.5-0.3,0.6-0.6c0.2-0.2,0.2-0.5,0.2-0.8c0-0.2-0.1-0.4-0.2-0.6
						c-0.1-0.2-0.3-0.3-0.5-0.4c-0.2-0.1-0.4-0.2-0.6-0.3c-0.2-0.1-0.5-0.2-0.7-0.2l-2.3-0.5c-0.3-0.1-0.6-0.2-0.9-0.3
						c-0.3-0.1-0.6-0.3-0.8-0.5c-0.2-0.2-0.4-0.4-0.6-0.7c-0.1-0.3-0.2-0.6-0.2-1c0-0.2,0.1-0.5,0.2-0.9c0.1-0.3,0.3-0.7,0.6-0.9
						c0.3-0.3,0.7-0.5,1.1-0.7c0.5-0.2,1.1-0.3,1.8-0.3c0.5,0,1,0.1,1.5,0.2c0.5,0.1,0.9,0.3,1.3,0.6c0.4,0.3,0.7,0.6,0.9,1
						c0.2,0.4,0.3,0.9,0.3,1.4V4h-1.3l0-0.2c0-0.3-0.1-0.6-0.2-0.9c-0.1-0.3-0.3-0.5-0.6-0.6c-0.2-0.2-0.5-0.3-0.8-0.4
						c-0.3-0.1-0.6-0.1-1-0.1c-0.3,0-0.6,0-0.9,0.1c-0.3,0.1-0.5,0.2-0.8,0.3c-0.2,0.1-0.4,0.3-0.5,0.5c-0.1,0.2-0.2,0.5-0.2,0.8
						c0,0.2,0,0.4,0.1,0.5c0.1,0.1,0.2,0.3,0.3,0.4c0.1,0.1,0.3,0.2,0.4,0.3c0.2,0.1,0.4,0.1,0.6,0.2l2.5,0.6
						c0.4,0.1,0.7,0.2,1.1,0.3c0.3,0.1,0.6,0.3,0.9,0.5c0.3,0.2,0.5,0.5,0.6,0.8c0.2,0.3,0.2,0.7,0.2,1.1c0,0.1,0,0.3,0,0.5
						c0,0.2-0.1,0.4-0.2,0.6c-0.1,0.2-0.2,0.4-0.4,0.6c-0.2,0.2-0.4,0.4-0.7,0.6c-0.3,0.2-0.7,0.3-1.1,0.4C75,11,74.5,11,73.9,11
						L73.9,11z M48,11c-0.8,0-1.6-0.1-2.2-0.4c-0.6-0.3-1.2-0.7-1.6-1.1c-0.4-0.5-0.7-1-0.9-1.6S43,6.6,43,5.9
						c0-0.7,0.1-1.3,0.3-1.9c0.2-0.6,0.5-1.2,0.9-1.6c0.4-0.5,0.9-0.9,1.6-1.1c0.6-0.3,1.4-0.4,2.2-0.4c0.8,0,1.6,0.1,2.2,0.4
						c0.6,0.3,1.1,0.7,1.6,1.1c0.4,0.5,0.7,1,0.9,1.6C52.9,4.6,53,5.2,53,5.9c0,0.7-0.1,1.3-0.3,1.9c-0.2,0.6-0.5,1.2-0.9,1.6
						c-0.4,0.5-0.9,0.9-1.6,1.1C49.5,10.9,48.8,11,48,11L48,11z M48,1.8c-0.6,0-1.2,0.1-1.7,0.3c-0.5,0.2-0.8,0.5-1.1,0.9
						c-0.3,0.4-0.5,0.8-0.7,1.3c-0.1,0.5-0.2,1-0.2,1.5c0,0.5,0.1,1,0.2,1.5c0.1,0.5,0.4,0.9,0.7,1.3c0.3,0.4,0.7,0.7,1.1,0.9
						c0.5,0.2,1,0.3,1.7,0.3c0.6,0,1.2-0.1,1.7-0.3c0.5-0.2,0.8-0.5,1.1-0.9c0.3-0.4,0.5-0.8,0.7-1.3c0.1-0.5,0.2-1,0.2-1.5
						c0-0.5-0.1-1-0.2-1.5c-0.1-0.5-0.4-0.9-0.7-1.3c-0.3-0.4-0.7-0.7-1.1-0.9C49.2,2,48.6,1.8,48,1.8L48,1.8z M64.6,10.8V2h-6.7
						v8.8h-1.3V2h-3.6V0.9h16.4V2h-3.6v8.8H64.6z M40.4,10.8h1.3V0.9h-1.3V10.8z M37.8,10.8L37.8,10.8c-0.1-0.2-0.2-0.3-0.2-0.5
						c0-0.1-0.1-0.3-0.1-0.4c0-0.1,0-0.3,0-0.4c0-0.1,0-0.2,0-0.3c0-0.3-0.1-0.7-0.1-1c0-0.3-0.1-0.6-0.3-0.8
						c-0.1-0.2-0.3-0.4-0.5-0.6c-0.2-0.1-0.5-0.2-0.9-0.2c0,0-0.1,0-0.1,0h-3.5v4.3h-1.3V0.9h4.9c0.4,0,0.8,0.1,1.2,0.2
						c0.4,0.1,0.7,0.3,1,0.5c0.3,0.2,0.5,0.5,0.7,0.8c0.2,0.3,0.3,0.7,0.3,1.2c0,0.6-0.2,1.2-0.5,1.7c-0.3,0.3-0.6,0.6-1,0.8
						c0.1,0,0.2,0.1,0.3,0.1c0.2,0.1,0.4,0.3,0.6,0.5c0.1,0.2,0.3,0.4,0.3,0.7c0.1,0.3,0.1,0.5,0.1,0.8c0,0.2,0,0.4,0,0.6
						c0,0.2,0,0.4,0.1,0.7c0,0.2,0.1,0.4,0.1,0.6c0.1,0.2,0.1,0.3,0.2,0.4l0.3,0.3H37.8z M35.5,5.5c0.3,0,0.5,0,0.8-0.1
						C36.6,5.3,36.8,5.2,37,5c0.2-0.1,0.3-0.3,0.4-0.5c0.1-0.2,0.2-0.4,0.2-0.7c0-0.5-0.2-1-0.5-1.3C36.8,2.2,36.2,2,35.5,2h-3.5
						v3.4H35.5z M28.3,10.8L28.3,10.8c-0.1-0.2-0.2-0.3-0.2-0.5c0-0.1-0.1-0.3-0.1-0.4c0-0.1,0-0.3,0-0.4c0-0.1,0-0.2,0-0.3
						c0-0.3-0.1-0.7-0.1-1c0-0.3-0.1-0.6-0.3-0.8c-0.1-0.2-0.3-0.4-0.5-0.6c-0.2-0.1-0.5-0.2-0.9-0.2c0,0-0.1,0-0.1,0h-3.5v4.3h-1.3
						V0.9H26c0.4,0,0.8,0.1,1.2,0.2c0.4,0.1,0.7,0.3,1,0.5c0.3,0.2,0.5,0.5,0.7,0.8c0.2,0.3,0.3,0.7,0.3,1.2c0,0.6-0.2,1.2-0.5,1.7
						c-0.3,0.3-0.6,0.6-1,0.8c0.1,0,0.2,0.1,0.3,0.1c0.2,0.1,0.4,0.3,0.6,0.5c0.1,0.2,0.3,0.4,0.3,0.7c0.1,0.3,0.1,0.5,0.1,0.8
						c0,0.2,0,0.4,0,0.6c0,0.2,0,0.4,0.1,0.7c0,0.2,0.1,0.4,0.1,0.6c0.1,0.2,0.1,0.3,0.2,0.4l0.2,0.3H28.3z M26,5.5
						c0.3,0,0.5,0,0.8-0.1C27,5.3,27.2,5.2,27.4,5c0.2-0.1,0.3-0.3,0.4-0.5C28,4.3,28,4,28,3.8c0-0.5-0.2-1-0.5-1.3
						C27.2,2.2,26.7,2,26,2h-3.5v3.4H26z M19.2,10.8l-1.2-3h-4.4l-1.2,3h-1.4l4.3-9.9h1.3l4.2,9.9H19.2z M17.5,6.7l-1.7-4.3L14,6.7
						H17.5z M9.1,10.8V3.2l-3.2,7.7H4.7L1.5,3.2v7.7H0.1V0.9h1.7l3.4,8.1l3.4-8.1h1.7v9.9H9.1z"/>
				</g>
			</g>
		</g>
	</g>
</g>
</svg>
