<svg xmlns="http://www.w3.org/2000/svg" xmlns:xlink="http://www.w3.org/1999/xlink" version="1.1" x="0px" y="0px" viewBox="0 0 780 440" xml:space="preserve"> <g id="Background"> </g> <g id="GRAPHICS"> </g> <g id="PHOTO"> <rect x="-8.31" y="-5.42" fill="#E5F9F5" width="795.89" height="449.51"></rect> <g> <g> <line fill="none" stroke="#162020" stroke-linecap="round" stroke-linejoin="round" stroke-miterlimit="10" stroke-dasharray="6" x1="402.3" y1="218.76" x2="405.09" y2="146.15"></line> <line fill="none" stroke="#162020" stroke-linecap="round" stroke-linejoin="round" stroke-miterlimit="10" stroke-dasharray="6" x1="382.14" y1="224.38" x2="260.95" y2="149.05"></line> <line fill="none" stroke="#162020" stroke-linecap="round" stroke-linejoin="round" stroke-miterlimit="10" stroke-dasharray="6" x1="413.96" y1="240.39" x2="538.72" y2="221.96"></line> <line fill="none" stroke="#162020" stroke-linecap="round" stroke-linejoin="round" stroke-miterlimit="10" stroke-dasharray="6" x1="424.68" y1="272.05" x2="493.96" y2="374.36"></line> <line fill="none" stroke="#162020" stroke-linecap="round" stroke-linejoin="round" stroke-miterlimit="10" stroke-dasharray="6" x1="383.19" y1="262.57" x2="295.93" y2="339.5"></line> </g> <g> <line fill="none" stroke="#162020" stroke-linecap="round" stroke-linejoin="round" stroke-miterlimit="10" stroke-dasharray="6" x1="538.15" y1="78.4" x2="613.6" y2="136.56"></line> <line fill="none" stroke="#162020" stroke-linecap="round" stroke-linejoin="round" stroke-miterlimit="10" stroke-dasharray="6" x1="523.93" y1="78.4" x2="428.33" y2="125.91"></line> <line fill="none" stroke="#162020" stroke-linecap="round" stroke-linejoin="round" stroke-miterlimit="10" stroke-dasharray="6" x1="323.17" y1="62.64" x2="413.72" y2="115.07"></line> <g> <polyline fill="none" stroke="#162020" stroke-linecap="round" stroke-linejoin="round" stroke-miterlimit="10" stroke-dasharray="6" points=" 583.62,325.33 484.45,353.83 296.31,339.12 262.27,177.45 "></polyline> <polyline fill="none" stroke="#162020" stroke-linecap="round" stroke-linejoin="round" stroke-miterlimit="10" stroke-dasharray="6" points=" 613.6,126.63 673.26,235.12 588.47,323.23 "></polyline> <line fill="none" stroke="#162020" stroke-linecap="round" stroke-linejoin="round" stroke-miterlimit="10" stroke-dasharray="6" x1="174.44" y1="300.02" x2="115.13" y2="215.55"></line> </g> </g> <polyline fill="none" stroke="#162020" stroke-linecap="round" stroke-linejoin="round" stroke-miterlimit="10" stroke-dasharray="6" points=" 296.6,153.72 417.42,121.2 534.21,225.05 588.47,313.21 "></polyline> <polyline fill="none" stroke="#162020" stroke-linecap="round" stroke-linejoin="round" stroke-miterlimit="10" stroke-dasharray="6" points=" 323.17,62.64 280.5,124.22 177.26,300.79 "></polyline> <line fill="none" stroke="#162020" stroke-linecap="round" stroke-linejoin="round" stroke-miterlimit="10" stroke-dasharray="6" x1="530.29" y1="81.12" x2="534.01" y2="178.49"></line> <line fill="none" stroke="#162020" stroke-linecap="round" stroke-linejoin="round" stroke-miterlimit="10" stroke-dasharray="6" x1="237.11" y1="154.82" x2="159.01" y2="120.82"></line> <line fill="none" stroke="#162020" stroke-linecap="round" stroke-linejoin="round" stroke-miterlimit="10" stroke-dasharray="6" x1="124.44" y1="204.45" x2="163.85" y2="118.7"></line> <line fill="none" stroke="#162020" stroke-linecap="round" stroke-linejoin="round" stroke-miterlimit="10" stroke-dasharray="6" x1="264.54" y1="338.89" x2="180.75" y2="305.53"></line> <polyline fill="none" stroke="#162020" stroke-linecap="round" stroke-linejoin="round" stroke-miterlimit="10" stroke-dasharray="6" points=" 613.6,126.63 549.27,208.71 666.27,242.14 "></polyline> </g> <g> <path fill="#2B87D3" stroke="#000000" stroke-miterlimit="10" d="M426.49,279.09h-54.96c-5.37,0-9.73-4.36-9.73-9.73V214.4 c0-5.37,4.36-9.73,9.73-9.73h54.96c5.37,0,9.73,4.36,9.73,9.73v54.96C436.22,274.73,431.86,279.09,426.49,279.09z"></path> <g id="nJAOJK_00000089567300509538194590000005706741684259199364_"> <g> <path fill="#FFFFFF" d="M392.34,267.38c-0.21-0.11-0.29-0.3-0.28-0.53c0.01-0.18,0-0.36,0-0.55c0-7.36,0-14.71,0-22.06 c0-3.78,0-7.56,0-11.34c0-0.11,0-0.21,0.01-0.32c0.03-0.21,0.14-0.32,0.35-0.36c0.07-0.01,0.15-0.01,0.23-0.01 c3.15,0,6.3,0,9.45,0c0.47,0,0.58,0.1,0.57,0.58c-0.01,0.87-0.02,1.74-0.03,2.62c0,0.42,0.02,0.83,0.03,1.25 c0,0.03,0.01,0.06,0.03,0.14c0.07-0.09,0.12-0.16,0.16-0.22c0.44-0.63,0.92-1.22,1.47-1.77c1.52-1.52,3.32-2.53,5.4-3.05 c0.82-0.21,1.65-0.34,2.49-0.37c0.62-0.03,1.24-0.05,1.87-0.03c1.05,0.03,2.08,0.18,3.11,0.42c0.93,0.21,1.83,0.5,2.69,0.92 c1.73,0.84,3.07,2.1,4.04,3.76c0.61,1.03,1.03,2.13,1.35,3.27c0.26,0.91,0.45,1.83,0.57,2.76c0.05,0.44,0.08,0.88,0.11,1.31 c0.05,0.79,0.1,1.57,0.13,2.36c0.03,1.02,0.04,2.03,0.06,3.05c0,0.19,0,0.38,0,0.57c0,0.08,0.02,0.16,0.03,0.25 c0,5.68,0,11.36,0,17.03c-0.02,0.06-0.05,0.13-0.07,0.2c-0.05,0.04-0.1,0.08-0.16,0.12c-3.54,0-7.08,0-10.61,0 c-0.19-0.14-0.24-0.33-0.24-0.56c0.01-0.36,0-0.71,0-1.07c0-5.38,0-10.76,0-16.14c0-0.93,0.01-1.87-0.08-2.8 c-0.1-1.06-0.35-2.08-0.8-3.05c-0.52-1.1-1.33-1.91-2.49-2.33c-0.56-0.2-1.15-0.3-1.74-0.32c-0.62-0.03-1.24-0.02-1.86,0.08 c-0.89,0.14-1.72,0.45-2.45,0.98c-0.8,0.58-1.34,1.36-1.72,2.25c-0.49,1.15-0.7,2.36-0.77,3.59c-0.05,0.87-0.06,1.74-0.06,2.62 c0,5.32,0,10.64,0,15.96c0,0.13,0,0.26-0.01,0.39c-0.01,0.17-0.07,0.31-0.22,0.4C399.39,267.38,395.86,267.38,392.34,267.38z"></path> <path fill="#FFFFFF" d="M374.62,267.38c-0.23-0.12-0.27-0.32-0.27-0.55c0-1.05,0-2.09,0-3.14c0-0.14,0-0.27,0-0.41 c0-10.12,0-20.24,0-30.35c0-0.14,0-0.27,0.02-0.41c0.03-0.19,0.1-0.26,0.3-0.28c0.11-0.01,0.23-0.01,0.34-0.01 c2.63,0,5.25,0,7.88,0c0.65,0,1.31,0,1.96,0c0.48,0,0.61,0.12,0.61,0.6c0,1.28,0,2.57,0,3.85c0,9.17,0,18.34,0,27.51 c0,0.83,0,1.65,0,2.48c0,0.07,0,0.14,0,0.2c0,0.22-0.07,0.4-0.27,0.52C381.67,267.38,378.15,267.38,374.62,267.38z"></path> <path fill="#FFFFFF" d="M380.27,214.82c0.2,0.03,0.4,0.05,0.61,0.08c1.24,0.18,2.34,0.69,3.27,1.53 c1.19,1.07,1.88,2.41,2.08,3.99c0.22,1.8-0.24,3.42-1.38,4.83c-1.07,1.31-2.46,2.09-4.14,2.29c-2.24,0.27-4.14-0.44-5.65-2.11 c-0.84-0.93-1.32-2.04-1.5-3.29c-0.01-0.09-0.05-0.17-0.08-0.26c0-0.44,0-0.88,0-1.32c0.03-0.09,0.07-0.19,0.08-0.28 c0.24-1.61,0.97-2.96,2.22-4c0.83-0.69,1.77-1.13,2.83-1.33c0.29-0.05,0.58-0.09,0.87-0.13 C379.76,214.82,380.01,214.82,380.27,214.82z"></path> </g> </g> </g> <g> <circle fill="#FFD5D2" stroke="#162020" stroke-miterlimit="10" cx="157.45" cy="117.61" r="26.26"></circle> </g> <path fill="#FF7F6E" stroke="#162020" stroke-miterlimit="10" d="M174.58,121.02v-6.25l-5.17-0.43c-0.23-0.81-0.53-1.6-0.9-2.34 l3.47-4.12l-4.41-4.41l-3.97,3.36c-0.72-0.42-1.49-0.76-2.28-1.02l-0.45-5.37h-6.23l-0.43,5.19c-0.82,0.22-1.6,0.53-2.34,0.91 l-4.1-3.48l-4.41,4.42l3.36,3.97c-0.42,0.73-0.76,1.5-1.02,2.3l-5.35,0.44v6.25l5.18,0.43c0.22,0.81,0.53,1.6,0.9,2.34l-3.47,4.11 l4.41,4.42l3.97-3.36c0.72,0.42,1.49,0.76,2.29,1.02l0.44,5.37h6.24l0.42-5.19c0.82-0.22,1.6-0.53,2.34-0.91l4.1,3.48l4.41-4.42 l-3.35-3.97c0.41-0.73,0.75-1.5,1.02-2.3L174.58,121.02z M157.45,123.59c-3.3,0-5.97-2.68-5.97-5.98c0-3.3,2.67-5.97,5.97-5.97 c3.29,0,5.96,2.68,5.96,5.97C163.41,120.91,160.74,123.59,157.45,123.59z"></path> <g> <circle fill="#FDEFCD" stroke="#162020" stroke-miterlimit="10" cx="285.98" cy="338.25" r="26.26"></circle> </g> <g> <circle fill="#FFC6A4" stroke="#182020" stroke-linecap="round" stroke-linejoin="round" stroke-miterlimit="10" cx="612.7" cy="125.83" r="21.25"></circle> </g> <path fill="#FC8943" stroke="#162020" stroke-miterlimit="10" d="M626.56,128.59v-5.06l-4.19-0.35c-0.19-0.66-0.43-1.29-0.73-1.89 l2.81-3.33l-3.57-3.57l-3.21,2.72c-0.58-0.34-1.2-0.61-1.85-0.82l-0.37-4.34h-5.04l-0.35,4.2c-0.67,0.18-1.29,0.43-1.89,0.73 l-3.32-2.82l-3.57,3.58l2.72,3.21c-0.34,0.59-0.61,1.21-0.83,1.86l-4.33,0.36v5.06l4.19,0.35c0.18,0.66,0.43,1.29,0.73,1.89 l-2.81,3.33l3.57,3.58l3.21-2.72c0.58,0.34,1.2,0.61,1.85,0.82l0.36,4.34H615l0.34-4.2c0.67-0.18,1.29-0.43,1.89-0.73l3.32,2.82 l3.57-3.58l-2.71-3.21c0.33-0.59,0.61-1.21,0.82-1.86L626.56,128.59z M612.7,130.67c-2.67,0-4.83-2.17-4.83-4.84 c0-2.67,2.16-4.84,4.83-4.84c2.66,0,4.82,2.17,4.82,4.84C617.52,128.5,615.36,130.67,612.7,130.67z"></path> <g> <ellipse fill="#FFB180" stroke="#182020" stroke-linecap="round" stroke-linejoin="round" stroke-miterlimit="10" cx="583.1" cy="324.14" rx="17.94" ry="18.12"></ellipse> <path fill="#FFFFFF" stroke="#182020" stroke-linecap="round" stroke-linejoin="round" stroke-miterlimit="10" d="M583.32,325.59 c-1.94,0-3.55-0.65-5.01-2.12c-1.29-1.31-2.1-3.1-2.1-5.06c0-1.96,0.65-3.75,2.1-5.06c1.29-1.31,3.07-2.12,5.01-2.12l0,0 c1.94,0,3.55,0.65,5.01,2.12c1.29,1.31,2.1,3.1,2.1,5.06c0,1.96-0.65,3.75-2.1,5.06C587.04,324.94,585.26,325.59,583.32,325.59 L583.32,325.59L583.32,325.59z"></path> <path fill="#FFFFFF" stroke="#182020" stroke-width="1.0525" stroke-miterlimit="10" d="M583.31,342.86 c-5.6,0.44-10.95-3.86-10.95-3.86l-0.19-2.48c0-6.04,4.85-10.93,10.82-10.93h0.48c5.98,0,10.82,4.89,10.82,10.93v1.79 C591.05,340.96,588.91,342.42,583.31,342.86z"></path> </g> <g> <ellipse fill="#FFB180" stroke="#182020" stroke-linecap="round" stroke-linejoin="round" stroke-miterlimit="10" cx="530.87" cy="84.5" rx="17.94" ry="18.12"></ellipse> <path fill="#FFFFFF" stroke="#182020" stroke-linecap="round" stroke-linejoin="round" stroke-miterlimit="10" d="M531.09,85.96 c-1.94,0-3.55-0.65-5.01-2.12c-1.29-1.31-2.1-3.1-2.1-5.06s0.65-3.75,2.1-5.06c1.29-1.31,3.07-2.12,5.01-2.12l0,0 c1.94,0,3.55,0.65,5.01,2.12c1.29,1.31,2.1,3.1,2.1,5.06s-0.65,3.75-2.1,5.06C534.81,85.3,533.03,85.96,531.09,85.96L531.09,85.96 L531.09,85.96z"></path> <path fill="#FFFFFF" stroke="#182020" stroke-width="1.0525" stroke-miterlimit="10" d="M531.09,103.23 c-5.6,0.44-10.95-3.86-10.95-3.86l-0.19-2.48c0-6.04,4.85-10.93,10.82-10.93h0.48c5.98,0,10.82,4.89,10.82,10.93v1.79 C538.82,101.33,536.68,102.78,531.09,103.23z"></path> </g> <g> <ellipse fill="#FFB180" stroke="#182020" stroke-linecap="round" stroke-linejoin="round" stroke-miterlimit="10" cx="323.8" cy="65.45" rx="17.94" ry="18.12"></ellipse> <path fill="#FFFFFF" stroke="#182020" stroke-linecap="round" stroke-linejoin="round" stroke-miterlimit="10" d="M324.02,66.91 c-1.94,0-3.55-0.65-5.01-2.12c-1.29-1.31-2.1-3.1-2.1-5.06s0.65-3.75,2.1-5.06c1.29-1.31,3.07-2.12,5.01-2.12l0,0 c1.94,0,3.55,0.65,5.01,2.12c1.29,1.31,2.1,3.1,2.1,5.06s-0.65,3.75-2.1,5.06C327.74,66.25,325.96,66.91,324.02,66.91 L324.02,66.91L324.02,66.91z"></path> <path fill="#FFFFFF" stroke="#182020" stroke-width="1.0525" stroke-miterlimit="10" d="M324.01,84.18 c-5.6,0.44-10.95-3.86-10.95-3.86l-0.19-2.48c0-6.04,4.85-10.93,10.82-10.93h0.48c5.98,0,10.82,4.89,10.82,10.93v1.79 C331.75,82.28,329.61,83.74,324.01,84.18z"></path> </g> <g> <ellipse fill="#FFB180" stroke="#182020" stroke-linecap="round" stroke-linejoin="round" stroke-miterlimit="10" cx="118.37" cy="210.94" rx="17.94" ry="18.12"></ellipse> <path fill="#FFFFFF" stroke="#182020" stroke-linecap="round" stroke-linejoin="round" stroke-miterlimit="10" d="M118.59,212.39 c-1.94,0-3.55-0.65-5.01-2.12c-1.29-1.31-2.1-3.1-2.1-5.06c0-1.96,0.65-3.75,2.1-5.06c1.29-1.31,3.07-2.12,5.01-2.12l0,0 c1.94,0,3.55,0.65,5.01,2.12c1.29,1.31,2.1,3.1,2.1,5.06c0,1.96-0.65,3.75-2.1,5.06C122.3,211.74,120.53,212.39,118.59,212.39 L118.59,212.39L118.59,212.39z"></path> <path fill="#FFFFFF" stroke="#182020" stroke-width="1.0525" stroke-miterlimit="10" d="M118.58,229.66 c-5.6,0.44-10.95-3.86-10.95-3.86l-0.19-2.48c0-6.04,4.85-10.93,10.82-10.93h0.48c5.98,0,10.82,4.89,10.82,10.93v1.79 C126.32,227.76,124.18,229.22,118.58,229.66z"></path> </g> <g> <circle fill="#FF9C8F" stroke="#162020" stroke-miterlimit="10" cx="531.07" cy="218.82" r="39.82"></circle> <circle fill="#FFFFFF" stroke="#182020" stroke-width="1.0525" stroke-miterlimit="10" cx="531.19" cy="200.26" r="9.09"></circle> <path fill="#FFFFFF" stroke="#182020" stroke-width="1.0525" stroke-miterlimit="10" d="M547.37,241.28h-32.03l0-14.12 c0-8.15,6.61-14.76,14.76-14.76h2.5c8.15,0,14.76,6.61,14.76,14.76V241.28z"></path> </g> <g> <circle fill="#A1D2F8" stroke="#162020" stroke-miterlimit="10" cx="415.02" cy="121.61" r="39.82"></circle> <circle fill="#FFFFFF" stroke="#182020" stroke-width="1.0525" stroke-miterlimit="10" cx="415.15" cy="103.05" r="9.09"></circle> <path fill="#FFFFFF" stroke="#182020" stroke-width="1.0525" stroke-miterlimit="10" d="M431.32,144.07h-32.03v-14.12 c0-8.15,6.61-14.76,14.76-14.76h2.5c8.15,0,14.76,6.61,14.76,14.76V144.07z"></path> </g> <g> <circle fill="#FFD943" stroke="#162020" stroke-miterlimit="10" cx="264.02" cy="158.43" r="39.82"></circle> <circle fill="#FFFFFF" stroke="#182020" stroke-width="1.0525" stroke-miterlimit="10" cx="264.15" cy="139.87" r="9.09"></circle> <path fill="#FFFFFF" stroke="#182020" stroke-width="1.0525" stroke-miterlimit="10" d="M280.32,180.9h-32.03v-14.12 c0-8.15,6.61-14.76,14.76-14.76h2.5c8.15,0,14.76,6.61,14.76,14.76V180.9z"></path> </g> <g> <circle fill="#FFD943" stroke="#162020" stroke-miterlimit="10" cx="474.88" cy="350.94" r="39.82"></circle> <circle fill="#FFFFFF" stroke="#182020" stroke-width="1.0525" stroke-miterlimit="10" cx="475.01" cy="332.38" r="9.09"></circle> <path fill="#FFFFFF" stroke="#182020" stroke-width="1.0525" stroke-miterlimit="10" d="M491.18,373.41h-32.03v-14.12 c0-8.15,6.61-14.76,14.76-14.76h2.5c8.15,0,14.76,6.61,14.76,14.76V373.41z"></path> </g> <g> <circle fill="#A1D2F8" stroke="#162020" stroke-miterlimit="10" cx="173.81" cy="298.7" r="39.82"></circle> <circle fill="#FFFFFF" stroke="#182020" stroke-width="1.0525" stroke-miterlimit="10" cx="173.93" cy="280.14" r="9.09"></circle> <path fill="#FFFFFF" stroke="#182020" stroke-width="1.0525" stroke-miterlimit="10" d="M190.11,321.16h-32.03v-14.12 c0-8.15,6.61-14.76,14.76-14.76h2.5c8.15,0,14.76,6.61,14.76,14.76V321.16z"></path> </g> <g> <circle fill="#FDEFCD" stroke="#162020" stroke-miterlimit="10" cx="665.81" cy="234.14" r="28.01"></circle> </g> <path fill="#FFE16E" stroke="#000000" stroke-miterlimit="10" d="M679.92,228.88c0,5.25-2.67,9.21-6.68,11.77 c-0.68,0.43-1.09,1.17-1.09,1.97v4.13c0,0.6-0.49,1.09-1.09,1.09h-10.27c-0.6,0-1.09-0.49-1.09-1.09v-4.13 c0-0.8-0.42-1.54-1.09-1.97c-4.01-2.56-6.68-6.52-6.68-11.77c0-8.05,6.27-14.57,14.01-14.57S679.92,220.83,679.92,228.88z"></path> <path fill="none" stroke="#000000" stroke-linecap="round" stroke-miterlimit="10" d="M665.77,225.66 c-1.61-0.24-3.33,0.32-4.49,1.46c-0.47,0.46-0.88,1.12-0.69,1.75c0.2,0.69,0.98,1.01,1.68,1.17c2.56,0.61,7.72,1.65,7.76,0.3 c0.05-1.8-8.68,0.41-8.64,3.11c0.03,2.42,8.28,3.79,8.39,2.62c0.11-1.12-4.04-0.82-5.92-0.07c-0.76,0.3-1.58,0.76-1.81,1.55 c-0.26,0.89,0.38,1.84,1.2,2.25c0.83,0.42,1.79,0.43,2.71,0.43c0.03,1.64,0.07,3.28,0.1,4.92"></path> <line fill="none" stroke="#000000" stroke-width="2" stroke-linecap="round" stroke-miterlimit="10" x1="661.2" y1="250.78" x2="670.63" y2="250.78"></line> <line fill="none" stroke="#000000" stroke-width="2" stroke-linecap="round" stroke-miterlimit="10" x1="662.3" y1="253.75" x2="669.53" y2="253.75"></line> <g> <path fill="#FFD943" stroke="#162020" stroke-miterlimit="10" d="M285.31,333.29c0,0-3.65,3.28-5.09,3.45 c-2.83,0.33-3.36-1.42-3.36-1.42l6.1-5.48c0,0-2.66-0.21-4.56,0.9c-1.3,0.76-2.45,1.8-2.45,1.8l-0.91-0.02v11.87l1.15-0.03 l6.54,5.05l0,0c0.35,0.34,0.82,0.55,1.35,0.55c1.04,0,1.89-0.82,1.92-1.84c0.34,0.3,0.79,0.49,1.28,0.49 c0.98,0,1.8-0.73,1.91-1.67c0.33,0.27,0.76,0.44,1.23,0.44c1.01,0,1.84-0.77,1.91-1.75c0.34,0.32,0.81,0.52,1.32,0.52 c1.06,0,1.92-0.85,1.92-1.89c0-0.48-0.19-0.92-0.49-1.26l-0.18,0.01L285.31,333.29z"></path> <path fill="#FFD943" stroke="#162020" stroke-miterlimit="10" d="M298.19,332.1c0,0-5.91-2.58-7.88-3.59 c-3.84-1.99-7.35,1.32-7.35,1.32l-6.1,5.48c0,0,0.53,1.75,3.36,1.42c1.44-0.17,5.09-3.45,5.09-3.45l9.6,9.7l0.18-0.01l4.25-0.13 v-10.8L298.19,332.1z"></path> <path fill="#FFB180" stroke="#182020" stroke-linecap="round" stroke-linejoin="round" stroke-miterlimit="10" d="M297.4,330.54 v1.51v10.8v2.68h3.56v-14.99H297.4z"></path> <path fill="#FFB180" stroke="#182020" stroke-linecap="round" stroke-linejoin="round" stroke-miterlimit="10" d="M271.9,330.54 v1.51v10.8v2.68h3.56v-14.99H271.9z"></path> </g> </g> </svg>